TITLE ""
FILE "DISC2Track09.mp3" MP3
  TRACK 01 AUDIO
    TITLE "DISC2Track09_01"
    INDEX 01 00:00:00
  TRACK 02 AUDIO
    TITLE "DISC2Track09_02"
    INDEX 01 00:01:25
  TRACK 03 AUDIO
    TITLE "DISC2Track09_03"
    INDEX 01 00:01:43
  TRACK 04 AUDIO
    TITLE "DISC2Track09_04"
    INDEX 01 00:04:47
  TRACK 05 AUDIO
    TITLE "DISC2Track09_05"
    INDEX 01 00:07:69
  TRACK 06 AUDIO
    TITLE "DISC2Track09_06"
    INDEX 01 00:10:69
  TRACK 07 AUDIO
    TITLE "DISC2Track09_07"
    INDEX 01 00:11:10
  TRACK 08 AUDIO
    TITLE "DISC2Track09_08"
    INDEX 01 00:15:18
  TRACK 09 AUDIO
    TITLE "DISC2Track09_09"
    INDEX 01 00:18:20
  TRACK 10 AUDIO
    TITLE "DISC2Track09_10"
    INDEX 01 00:20:74
  TRACK 11 AUDIO
    TITLE "DISC2Track09_11"
    INDEX 01 00:21:14
  TRACK 12 AUDIO
    TITLE "DISC2Track09_12"
    INDEX 01 00:25:00
  TRACK 13 AUDIO
    TITLE "DISC2Track09_13"
    INDEX 01 00:28:05
  TRACK 14 AUDIO
    TITLE "DISC2Track09_14"
    INDEX 01 00:30:54
  TRACK 15 AUDIO
    TITLE "DISC2Track09_15"
    INDEX 01 00:30:74
  TRACK 16 AUDIO
    TITLE "DISC2Track09_16"
    INDEX 01 00:34:11
  TRACK 17 AUDIO
    TITLE "DISC2Track09_17"
    INDEX 01 00:37:04
  TRACK 18 AUDIO
    TITLE "DISC2Track09_18"
    INDEX 01 00:39:44
  TRACK 19 AUDIO
    TITLE "DISC2Track09_19"
    INDEX 01 00:39:59
  TRACK 20 AUDIO
    TITLE "DISC2Track09_20"
    INDEX 01 00:42:56
  TRACK 21 AUDIO
    TITLE "DISC2Track09_21"
    INDEX 01 00:45:25
  TRACK 22 AUDIO
    TITLE "DISC2Track09_22"
    INDEX 01 00:47:49
  TRACK 23 AUDIO
    TITLE "DISC2Track09_23"
    INDEX 01 00:47:65
  TRACK 24 AUDIO
    TITLE "DISC2Track09_24"
    INDEX 01 00:49:32
  TRACK 25 AUDIO
    TITLE "DISC2Track09_25"
    INDEX 01 00:51:57
  TRACK 26 AUDIO
    TITLE "DISC2Track09_26"
    INDEX 01 00:53:48
  TRACK 27 AUDIO
    TITLE "DISC2Track09_27"
    INDEX 01 00:53:57
  TRACK 28 AUDIO
    TITLE "DISC2Track09_28"
    INDEX 01 00:57:69
  TRACK 29 AUDIO
    TITLE "DISC2Track09_29"
    INDEX 01 01:02:13
  TRACK 30 AUDIO
    TITLE "DISC2Track09_30"
    INDEX 01 01:06:11
  TRACK 31 AUDIO
    TITLE "DISC2Track09_31"
    INDEX 01 01:06:27
  TRACK 32 AUDIO
    TITLE "DISC2Track09_32"
    INDEX 01 01:10:03
  TRACK 33 AUDIO
    TITLE "DISC2Track09_33"
    INDEX 01 01:13:09
  TRACK 34 AUDIO
    TITLE "DISC2Track09_34"
    INDEX 01 01:15:59
  TRACK 35 AUDIO
    TITLE "DISC2Track09_35"
    INDEX 01 01:16:00
  TRACK 36 AUDIO
    TITLE "DISC2Track09_36"
    INDEX 01 01:17:36
  TRACK 37 AUDIO
    TITLE "DISC2Track09_37"
    INDEX 01 01:19:41
  TRACK 38 AUDIO
    TITLE "DISC2Track09_38"
    INDEX 01 01:21:22
  TRACK 39 AUDIO
    TITLE "DISC2Track09_39"
    INDEX 01 01:21:38
  TRACK 40 AUDIO
    TITLE "DISC2Track09_40"
    INDEX 01 01:23:72
  TRACK 41 AUDIO
    TITLE "DISC2Track09_41"
    INDEX 01 01:26:20
  TRACK 42 AUDIO
    TITLE "DISC2Track09_42"
    INDEX 01 01:28:07
  TRACK 43 AUDIO
    TITLE "DISC2Track09_43"
    INDEX 01 01:28:23
  TRACK 44 AUDIO
    TITLE "DISC2Track09_44"
    INDEX 01 01:31:72
  TRACK 45 AUDIO
    TITLE "DISC2Track09_45"
    INDEX 01 01:35:21
  TRACK 46 AUDIO
    TITLE "DISC2Track09_46"
    INDEX 01 01:38:11
  TRACK 47 AUDIO
    TITLE "DISC2Track09_47"
    INDEX 01 01:38:25
  TRACK 48 AUDIO
    TITLE "DISC2Track09_48"
    INDEX 01 01:40:14
  TRACK 49 AUDIO
    TITLE "DISC2Track09_49"
    INDEX 01 01:42:40
  TRACK 50 AUDIO
    TITLE "DISC2Track09_50"
    INDEX 01 01:44:25
  TRACK 51 AUDIO
    TITLE "DISC2Track09_51"
    INDEX 01 01:44:39
  TRACK 52 AUDIO
    TITLE "DISC2Track09_52"
    INDEX 01 01:47:71
  TRACK 53 AUDIO
    TITLE "DISC2Track09_53"
    INDEX 01 01:50:73
  TRACK 54 AUDIO
    TITLE "DISC2Track09_54"
    INDEX 01 01:53:50
